<svg xmlns="http://www.w3.org/2000/svg" viewBox="0 0 1910 1000" role="img" aria-labelledby="title desc">
<title id="title">Paper Trail technical changelog diagram</title>
<desc id="desc">An amber isometric CHANGES.md document with expanded decision branches on graphite.</desc>
<rect width="1910" height="1000" fill="#1C1C1E"/>
<g fill="none" stroke="#C9933A" stroke-width="3" stroke-linecap="square" stroke-linejoin="miter">
  <!-- main document -->
  <polygon points="420,155 735,80 735,855 420,930"/>
  <polyline points="735,80 760,105 760,880 735,855"/>
  <line x1="420" y1="155" x2="445" y2="180"/>
  <line x1="760" y1="105" x2="445" y2="180"/>
  <line x1="445" y1="180" x2="445" y2="900"/>
</g>
<g fill="#C9933A" font-family="ui-monospace, SFMono-Regular, Menlo, Consolas, monospace">
  <text x="470" y="205" font-size="38" transform="skewY(-13)">CHANGES.md</text>
</g>
<g stroke="#C9933A" stroke-width="2.2" stroke-linecap="square" fill="none">
<line x1="490" y1="255" x2="690" y2="207" opacity="0.9"/>
<rect x="465" y="247" width="10" height="10" transform="skewY(-13)" />
<line x1="490" y1="286" x2="690" y2="238" opacity="0.9"/>
<rect x="465" y="278" width="10" height="10" transform="skewY(-13)" />
<line x1="490" y1="317" x2="690" y2="269" opacity="0.9"/>
<rect x="465" y="309" width="10" height="10" transform="skewY(-13)" />
<line x1="490" y1="348" x2="690" y2="300" opacity="0.9"/>
<rect x="465" y="340" width="10" height="10" transform="skewY(-13)" />
<line x1="490" y1="379" x2="690" y2="331" opacity="0.9"/>
<rect x="465" y="371" width="10" height="10" transform="skewY(-13)" />
<line x1="490" y1="410" x2="690" y2="362" opacity="0.9"/>
<rect x="465" y="402" width="10" height="10" transform="skewY(-13)" />
<line x1="490" y1="441" x2="690" y2="393" opacity="0.9"/>
<rect x="465" y="433" width="10" height="10" transform="skewY(-13)" />
<line x1="490" y1="472" x2="690" y2="424" opacity="0.9"/>
<rect x="465" y="464" width="10" height="10" transform="skewY(-13)" />
<line x1="490" y1="503" x2="690" y2="455" opacity="0.9"/>
<rect x="465" y="495" width="10" height="10" transform="skewY(-13)" />
<line x1="490" y1="534" x2="690" y2="486" opacity="0.9"/>
<rect x="465" y="526" width="10" height="10" transform="skewY(-13)" />
<line x1="490" y1="565" x2="690" y2="517" opacity="0.9"/>
<rect x="465" y="557" width="10" height="10" transform="skewY(-13)" />
<line x1="490" y1="596" x2="690" y2="548" opacity="0.9"/>
<rect x="465" y="588" width="10" height="10" transform="skewY(-13)" />
<line x1="490" y1="627" x2="690" y2="579" opacity="0.9"/>
<rect x="465" y="619" width="10" height="10" transform="skewY(-13)" />
<line x1="490" y1="658" x2="690" y2="610" opacity="0.9"/>
<rect x="465" y="650" width="10" height="10" transform="skewY(-13)" />
<line x1="490" y1="689" x2="690" y2="641" opacity="0.9"/>
<rect x="465" y="681" width="10" height="10" transform="skewY(-13)" />
<line x1="490" y1="720" x2="690" y2="672" opacity="0.9"/>
<rect x="465" y="712" width="10" height="10" transform="skewY(-13)" />
<line x1="490" y1="751" x2="690" y2="703" opacity="0.9"/>
<rect x="465" y="743" width="10" height="10" transform="skewY(-13)" />
<line x1="490" y1="782" x2="690" y2="734" opacity="0.9"/>
<rect x="465" y="774" width="10" height="10" transform="skewY(-13)" />
<line x1="490" y1="813" x2="690" y2="765" opacity="0.9"/>
<rect x="465" y="805" width="10" height="10" transform="skewY(-13)" />
<line x1="490" y1="844" x2="690" y2="796" opacity="0.9"/>
<rect x="465" y="836" width="10" height="10" transform="skewY(-13)" />
<line x1="705" y1="267" x2="830" y2="245"/>
<polygon points="830,210 1280,155 1280,290 830,345" />
<line x1="858" y1="255" x2="1245" y2="215" />
<polyline points="1225,205 1245,215 1225,232" />
<polyline points="925,242 990,295 1200,265" stroke-dasharray="12 12" opacity="0.72"/>
<line x1="1208" y1="258" x2="1228" y2="278" opacity="0.72"/><line x1="1228" y1="258" x2="1208" y2="278" opacity="0.72"/>
<rect x="865" y="242" width="14" height="14" transform="skewY(-13)" />
<line x1="705" y1="453" x2="830" y2="475"/>
<polygon points="830,440 1280,385 1280,550 830,605" />
<line x1="858" y1="485" x2="1245" y2="445" />
<polyline points="1225,435 1245,445 1225,462" />
<polyline points="925,472 990,525 1200,495" stroke-dasharray="12 12" opacity="0.72"/>
<line x1="1208" y1="488" x2="1228" y2="508" opacity="0.72"/><line x1="1228" y1="488" x2="1208" y2="508" opacity="0.72"/>
<polyline points="930,496 1015,565 1210,540" stroke-dasharray="12 12" opacity="0.55"/>
<line x1="1218" y1="533" x2="1238" y2="553" opacity="0.55"/><line x1="1238" y1="533" x2="1218" y2="553" opacity="0.55"/>
<rect x="865" y="472" width="14" height="14" transform="skewY(-13)" />
<line x1="705" y1="670" x2="830" y2="725"/>
<polygon points="830,690 1280,635 1280,770 830,825" />
<line x1="858" y1="735" x2="1245" y2="695" />
<polyline points="1225,685 1245,695 1225,712" />
<polyline points="925,722 990,775 1200,745" stroke-dasharray="12 12" opacity="0.72"/>
<line x1="1208" y1="738" x2="1228" y2="758" opacity="0.72"/><line x1="1228" y1="738" x2="1208" y2="758" opacity="0.72"/>
<rect x="865" y="722" width="14" height="14" transform="skewY(-13)" />
</g>
<g fill="#C9933A" font-family="ui-monospace, SFMono-Regular, Menlo, Consolas, monospace" font-size="24">
<text x="510" y="248" transform="skewY(-13)">01</text><text x="565" y="235" transform="skewY(-13)">2025-05-12</text>
<text x="510" y="279" transform="skewY(-13)">02</text><text x="565" y="266" transform="skewY(-13)">2025-05-12</text>
<text x="510" y="310" transform="skewY(-13)">03</text><text x="565" y="297" transform="skewY(-13)">2025-05-12</text>
<text x="510" y="341" transform="skewY(-13)">04</text><text x="565" y="328" transform="skewY(-13)">2025-05-12</text>
<text x="510" y="372" transform="skewY(-13)">05</text><text x="565" y="359" transform="skewY(-13)">2025-05-12</text>
<text x="510" y="403" transform="skewY(-13)">06</text><text x="565" y="390" transform="skewY(-13)">2025-05-12</text>
<text x="510" y="434" transform="skewY(-13)">07</text><text x="565" y="421" transform="skewY(-13)">2025-05-12</text>
<text x="510" y="465" transform="skewY(-13)">08</text><text x="565" y="452" transform="skewY(-13)">2025-05-12</text>
<text x="510" y="496" transform="skewY(-13)">09</text><text x="565" y="483" transform="skewY(-13)">2025-05-12</text>
<text x="510" y="527" transform="skewY(-13)">10</text><text x="565" y="514" transform="skewY(-13)">2025-05-12</text>
<text x="510" y="558" transform="skewY(-13)">11</text><text x="565" y="545" transform="skewY(-13)">2025-05-12</text>
<text x="510" y="589" transform="skewY(-13)">12</text><text x="565" y="576" transform="skewY(-13)">2025-05-12</text>
<text x="510" y="620" transform="skewY(-13)">13</text><text x="565" y="607" transform="skewY(-13)">2025-05-12</text>
<text x="510" y="651" transform="skewY(-13)">14</text><text x="565" y="638" transform="skewY(-13)">2025-05-12</text>
<text x="510" y="682" transform="skewY(-13)">15</text><text x="565" y="669" transform="skewY(-13)">2025-05-12</text>
<text x="510" y="713" transform="skewY(-13)">16</text><text x="565" y="700" transform="skewY(-13)">2025-05-12</text>
<text x="510" y="744" transform="skewY(-13)">17</text><text x="565" y="731" transform="skewY(-13)">2025-05-12</text>
<text x="510" y="775" transform="skewY(-13)">18</text><text x="565" y="762" transform="skewY(-13)">2025-05-12</text>
<text x="510" y="806" transform="skewY(-13)">19</text><text x="565" y="793" transform="skewY(-13)">2025-05-12</text>
<text x="510" y="837" transform="skewY(-13)">20</text><text x="565" y="824" transform="skewY(-13)">2025-05-12</text>
<text x="895" y="245" transform="skewY(-7)">03</text><text x="955" y="232" transform="skewY(-7)">decision path</text>
<text x="895" y="475" transform="skewY(-7)">09</text><text x="955" y="462" transform="skewY(-7)">decision path</text>
<text x="895" y="725" transform="skewY(-7)">16</text><text x="955" y="712" transform="skewY(-7)">decision path</text>
</g></svg>